
          <svg data-logo="logo" xmlns="http://www.w3.org/2000/svg" viewBox="0 0 192 43">
            <g id="logogram" transform="translate(0, 1) rotate(0)"><path d="M20.3018 10.27C20.3018 15.7928 15.8246 20.27 10.3018 20.27H0.301758V10.27C0.301758 4.74714 4.7789 0.269989 10.3018 0.269989C15.8246 0.269989 20.3018 4.74714 20.3018 10.27Z" fill="#17CF97"/><path d="M20.3018 30.27C20.3018 24.7471 24.7789 20.27 30.3018 20.27H40.3018V30.27C40.3018 35.7928 35.8246 40.27 30.3018 40.27C24.7789 40.27 20.3018 35.7928 20.3018 30.27Z" fill="#17CF97"/><path d="M0.301758 30.27C0.301758 35.7928 4.7789 40.27 10.3018 40.27H20.3018V30.27C20.3018 24.7471 15.8246 20.27 10.3018 20.27C4.7789 20.27 0.301758 24.7471 0.301758 30.27Z" fill="#17CF97"/><path d="M40.3018 10.27C40.3018 4.74714 35.8246 0.269989 30.3018 0.269989H20.3018V10.27C20.3018 15.7928 24.7789 20.27 30.3018 20.27C35.8246 20.27 40.3018 15.7928 40.3018 10.27Z" fill="#17CF97"/></g>
            <g id="logotype" transform="translate(47, 7)"><path fill="#111111" d="M14.09 29L8.17 29L8.17 4.43L18.18 4.43Q21.09 4.43 23.08 5.37Q25.08 6.32 26.14 8.02Q27.21 9.71 27.21 11.95L27.21 11.95Q27.21 14.23 25.81 15.96Q24.41 17.70 21.93 18.29L21.93 18.29Q23.75 18.88 25.15 20.35Q26.55 21.82 27.49 24.01Q28.44 26.20 28.75 29L28.75 29L22.38 29Q22.21 26.59 21.47 24.70Q20.73 22.80 19.20 21.65L19.20 21.65Q18.25 20.91 16.99 20.51Q15.73 20.11 14.09 20.07L14.09 20.07L14.09 29ZM14.09 9.22L14.09 15.35L17.83 15.35Q19.48 15.35 20.33 14.46Q21.19 13.56 21.19 12.20L21.19 12.20Q21.19 10.87 20.32 10.05Q19.44 9.22 17.83 9.22L17.83 9.22L14.09 9.22ZM39.25 29.25L39.25 29.25Q37.12 29.25 35.17 28.58Q33.23 27.91 31.74 26.64Q30.26 25.36 29.40 23.54Q28.54 21.72 28.54 19.38L28.54 19.38Q28.54 17.13 29.36 15.28Q30.19 13.42 31.60 12.06Q33.02 10.69 34.89 9.96Q36.77 9.22 38.87 9.22L38.87 9.22Q40.58 9.22 42.14 9.68Q43.70 10.13 44.94 11.01Q46.18 11.88 46.90 13.07Q47.62 14.26 47.62 15.73L47.62 15.73Q47.62 17.59 46.57 18.81Q45.52 20.04 43.82 20.74Q42.12 21.44 40.11 21.74Q38.09 22.04 36.14 22L36.14 22Q35.89 22 35.56 21.98Q35.23 21.96 34.95 21.95Q34.67 21.93 34.53 21.93L34.53 21.93Q34.73 22.73 35.42 23.38Q36.10 24.03 37.15 24.41Q38.20 24.80 39.32 24.80L39.32 24.80Q40.44 24.80 41.47 24.41Q42.51 24.03 43.35 23.43Q44.19 22.84 44.78 22.11L44.78 22.11L48.56 25.08Q47.51 26.48 46.01 27.41Q44.50 28.34 42.77 28.79Q41.04 29.25 39.25 29.25ZM36.17 18.11L36.17 18.11Q37.12 18.11 38.13 18.01Q39.15 17.91 40.00 17.64Q40.86 17.38 41.40 16.91Q41.95 16.43 41.95 15.70L41.95 15.70Q41.95 15.10 41.53 14.65Q41.11 14.19 40.41 13.95Q39.71 13.70 38.90 13.70L38.90 13.70Q37.50 13.70 36.45 14.37Q35.40 15.03 34.84 16.03Q34.28 17.03 34.21 18.04L34.21 18.04Q34.53 18.08 35.07 18.10Q35.61 18.11 36.17 18.11ZM57.70 29.25L57.70 29.25Q55.56 29.25 53.79 28.58Q52.03 27.91 50.84 26.71Q49.65 25.50 49.12 23.93L49.12 23.93L54.58 22.70Q54.83 23.71 55.65 24.29Q56.47 24.87 57.66 24.87L57.66 24.87Q58.82 24.87 59.45 24.40Q60.08 23.93 60.08 23.26L60.08 23.26Q60.08 22.45 59.31 22.05Q58.54 21.65 57.29 21.37Q56.05 21.09 54.69 20.77Q53.32 20.46 52.10 19.85Q50.87 19.23 50.10 18.15Q49.33 17.06 49.33 15.31L49.33 15.31Q49.33 13.63 50.26 12.27Q51.19 10.90 52.95 10.06Q54.72 9.22 57.28 9.22L57.28 9.22Q59.41 9.22 61.04 9.89Q62.67 10.55 63.73 11.73Q64.80 12.90 65.26 14.51L65.26 14.51L60.04 15.87Q59.83 14.82 59.10 14.23Q58.36 13.63 57.14 13.63L57.14 13.63Q56.02 13.63 55.46 14.05Q54.90 14.47 54.90 15.17L54.90 15.17Q54.90 15.94 55.67 16.38Q56.44 16.82 57.66 17.10Q58.89 17.38 60.25 17.75Q61.62 18.11 62.84 18.74Q64.06 19.38 64.84 20.49Q65.61 21.61 65.61 23.40L65.61 23.40Q65.61 25.08 64.64 26.41Q63.68 27.74 61.90 28.49Q60.11 29.25 57.70 29.25ZM67.74 29L67.74 4.43L83.67 4.43L83.67 9.15L73.66 9.15L73.66 14.44L81.18 14.44L81.18 19.02L73.66 19.02L73.66 29L67.74 29ZM93.47 29.25L93.47 29.25Q90.60 29.25 88.32 28.04Q86.05 26.83 84.73 24.55Q83.42 22.28 83.42 19.23L83.42 19.23Q83.42 16.16 84.75 13.91Q86.08 11.67 88.37 10.45Q90.67 9.22 93.54 9.22L93.54 9.22Q96.44 9.22 98.73 10.43Q101.03 11.64 102.36 13.90Q103.69 16.16 103.69 19.23L103.69 19.23Q103.69 22.28 102.32 24.55Q100.96 26.83 98.65 28.04Q96.34 29.25 93.47 29.25ZM93.47 24.13L93.47 24.13Q94.55 24.13 95.51 23.59Q96.48 23.05 97.07 21.96Q97.67 20.88 97.67 19.23L97.67 19.23Q97.67 17.55 97.07 16.49Q96.48 15.42 95.55 14.89Q94.62 14.37 93.54 14.37L93.54 14.37Q92.45 14.37 91.52 14.89Q90.60 15.42 90.02 16.49Q89.44 17.55 89.44 19.23L89.44 19.23Q89.44 20.88 89.98 21.96Q90.53 23.05 91.45 23.59Q92.38 24.13 93.47 24.13ZM105.65 22.95L105.65 22.95L105.65 3.10L111.56 3.10L111.56 22.66Q111.56 23.43 112.03 23.82Q112.51 24.20 113.14 24.20L113.14 24.20Q113.56 24.20 113.94 24.06L113.94 24.06L114.89 28.61Q113.49 29.25 111.74 29.25L111.74 29.25Q110.27 29.25 108.87 28.65Q107.47 28.05 106.56 26.67Q105.65 25.29 105.65 22.95ZM122.13 29L116.25 29L116.25 9.47L122.13 9.47L122.13 29ZM119.23 7.40L119.23 7.40Q117.51 7.40 116.43 6.42Q115.34 5.44 115.34 3.97L115.34 3.97Q115.34 2.47 116.43 1.47Q117.51 0.47 119.23 0.47L119.23 0.47Q120.91 0.47 121.99 1.47Q123.08 2.47 123.08 3.97L123.08 3.97Q123.08 5.44 121.99 6.42Q120.91 7.40 119.23 7.40ZM134.07 29.25L134.07 29.25Q131.20 29.25 128.92 28.04Q126.65 26.83 125.33 24.55Q124.02 22.28 124.02 19.23L124.02 19.23Q124.02 16.16 125.35 13.91Q126.68 11.67 128.97 10.45Q131.27 9.22 134.14 9.22L134.14 9.22Q137.04 9.22 139.33 10.43Q141.63 11.64 142.96 13.90Q144.29 16.16 144.29 19.23L144.29 19.23Q144.29 22.28 142.92 24.55Q141.56 26.83 139.25 28.04Q136.94 29.25 134.07 29.25ZM134.07 24.13L134.07 24.13Q135.15 24.13 136.11 23.59Q137.08 23.05 137.67 21.96Q138.27 20.88 138.27 19.23L138.27 19.23Q138.27 17.55 137.67 16.49Q137.08 15.42 136.15 14.89Q135.22 14.37 134.14 14.37L134.14 14.37Q133.05 14.37 132.12 14.89Q131.20 15.42 130.62 16.49Q130.04 17.55 130.04 19.23L130.04 19.23Q130.04 20.88 130.58 21.96Q131.13 23.05 132.05 23.59Q132.98 24.13 134.07 24.13Z"/></g>
            
          </svg>
        